<?xml version="1.0" encoding="UTF-8" standalone="no"?>
<svg
   data-v-423bf9ae=""
   viewBox="0 0 615 91"
   class="iconLeft"
   version="1.1"
   id="svg26"
   sodipodi:docname="logo-black.svg"
   inkscape:version="1.2.2 (732a01da63, 2022-12-09)"
   xmlns:inkscape="http://www.inkscape.org/namespaces/inkscape"
   xmlns:sodipodi="http://sodipodi.sourceforge.net/DTD/sodipodi-0.dtd"
   xmlns="http://www.w3.org/2000/svg"
   xmlns:svg="http://www.w3.org/2000/svg">
  <defs
     id="defs30" />
  <sodipodi:namedview
     id="namedview28"
     pagecolor="#ffffff"
     bordercolor="#000000"
     borderopacity="0.25"
     inkscape:showpageshadow="2"
     inkscape:pageopacity="0.0"
     inkscape:pagecheckerboard="0"
     inkscape:deskcolor="#d1d1d1"
     showgrid="false"
     inkscape:zoom="1.3912182"
     inkscape:cx="283.20504"
     inkscape:cy="125.78904"
     inkscape:window-width="1366"
     inkscape:window-height="697"
     inkscape:window-x="-8"
     inkscape:window-y="-8"
     inkscape:window-maximized="1"
     inkscape:current-layer="svg26" />
  <!---->
  <!---->
  <!---->
  <g
     data-v-423bf9ae=""
     id="a4b9c022-1f8a-4887-91b1-61904ec853e7"
     fill="#ffffff"
     transform="matrix(5.424955053999871,0,0,5.424955053999871,99.69864049336792,5.888769038650665)"
     style="fill:#0053db;fill-opacity:1">
    <path
       d="M4.62 2.31L0.07 12.60L1.40 12.60L2.65 9.66L6.59 9.66L7.84 12.60L9.17 12.60ZM4.62 5.01L6.12 8.54L3.12 8.54ZM9.45 9.38C9.45 10.40 9.76 11.21 10.37 11.82C10.98 12.43 11.74 12.74 12.64 12.74C13.61 12.74 14.35 12.32 14.84 11.49L14.84 12.60L15.96 12.60L15.96 1.68L14.84 1.68L14.84 7.27C14.35 6.44 13.61 6.02 12.64 6.02C11.74 6.02 10.98 6.33 10.37 6.94C9.76 7.55 9.45 8.36 9.45 9.38ZM10.58 9.38C10.58 8.66 10.79 8.10 11.21 7.69C11.63 7.28 12.16 7.07 12.78 7.07C13.31 7.07 13.79 7.28 14.21 7.70C14.63 8.12 14.84 8.68 14.84 9.38C14.84 10.08 14.63 10.64 14.21 11.06C13.79 11.48 13.31 11.69 12.78 11.69C12.16 11.69 11.63 11.48 11.21 11.07C10.79 10.66 10.58 10.10 10.58 9.38ZM19.11 8.68C19.11 8.20 19.24 7.82 19.50 7.52C19.76 7.22 20.13 7.07 20.61 7.07C21.05 7.07 21.36 7.20 21.55 7.46C21.74 7.72 21.84 8.13 21.84 8.68L21.84 12.60L22.96 12.60L22.96 8.68C22.96 8.20 23.09 7.82 23.35 7.52C23.61 7.22 23.98 7.07 24.46 7.07C24.90 7.07 25.21 7.20 25.40 7.46C25.59 7.72 25.69 8.13 25.69 8.68L25.69 12.60L26.81 12.60L26.81 8.54C26.81 7.71 26.63 7.08 26.28 6.66C25.92 6.23 25.41 6.02 24.74 6.02C24.33 6.02 23.94 6.12 23.59 6.33C23.24 6.53 22.95 6.81 22.74 7.17C22.43 6.40 21.81 6.02 20.89 6.02C20.14 6.02 19.55 6.33 19.11 6.96L19.11 6.16L17.99 6.16L17.99 12.60L19.11 12.60ZM28.91 3.50C28.91 3.71 28.99 3.88 29.14 4.04C29.29 4.19 29.47 4.27 29.68 4.27C29.89 4.27 30.06 4.19 30.22 4.04C30.37 3.88 30.45 3.71 30.45 3.50C30.45 3.29 30.37 3.12 30.22 2.96C30.06 2.81 29.89 2.73 29.68 2.73C29.47 2.73 29.29 2.81 29.14 2.96C28.99 3.12 28.91 3.29 28.91 3.50ZM29.12 6.16L29.12 12.60L30.24 12.60L30.24 6.16ZM32.84 10.35L31.92 10.88C32.01 11.40 32.31 11.84 32.80 12.20C33.30 12.56 33.84 12.74 34.44 12.74C35.17 12.74 35.74 12.58 36.16 12.26C36.58 11.93 36.79 11.44 36.79 10.78C36.79 10.01 36.20 9.37 35.01 8.88C34.70 8.75 34.45 8.64 34.27 8.55C34.08 8.46 33.90 8.34 33.72 8.18C33.54 8.03 33.45 7.87 33.45 7.71C33.45 7.29 33.77 7.08 34.43 7.08C34.71 7.08 34.98 7.15 35.24 7.28C35.51 7.41 35.71 7.60 35.84 7.85L36.74 7.28C36.61 6.93 36.33 6.63 35.87 6.38C35.41 6.14 34.93 6.02 34.41 6.02C33.86 6.02 33.38 6.18 32.96 6.49C32.54 6.80 32.33 7.21 32.33 7.71C32.33 7.97 32.38 8.19 32.48 8.40C32.58 8.61 32.73 8.78 32.94 8.93C33.14 9.08 33.32 9.20 33.50 9.29C33.68 9.38 33.90 9.48 34.17 9.59C34.42 9.68 34.60 9.76 34.73 9.82C34.85 9.88 35.00 9.97 35.16 10.07C35.32 10.18 35.44 10.30 35.52 10.43C35.59 10.56 35.63 10.71 35.63 10.88C35.63 11.42 35.26 11.69 34.51 11.69C34.11 11.69 33.75 11.56 33.44 11.31C33.13 11.06 32.93 10.74 32.84 10.35ZM38.56 10.35L37.63 10.88C37.73 11.40 38.02 11.84 38.51 12.20C39.01 12.56 39.55 12.74 40.15 12.74C40.88 12.74 41.45 12.58 41.87 12.26C42.29 11.93 42.50 11.44 42.50 10.78C42.50 10.01 41.91 9.37 40.73 8.88C40.41 8.75 40.16 8.64 39.98 8.55C39.80 8.46 39.61 8.34 39.43 8.18C39.25 8.03 39.16 7.87 39.16 7.71C39.16 7.29 39.48 7.08 40.14 7.08C40.42 7.08 40.69 7.15 40.96 7.28C41.22 7.41 41.42 7.60 41.55 7.85L42.45 7.28C42.33 6.93 42.04 6.63 41.58 6.38C41.12 6.14 40.64 6.02 40.12 6.02C39.57 6.02 39.09 6.18 38.67 6.49C38.25 6.80 38.04 7.21 38.04 7.71C38.04 7.97 38.09 8.19 38.19 8.40C38.29 8.61 38.45 8.78 38.65 8.93C38.85 9.08 39.04 9.20 39.21 9.29C39.39 9.38 39.62 9.48 39.89 9.59C40.13 9.68 40.31 9.76 40.44 9.82C40.57 9.88 40.71 9.97 40.87 10.07C41.04 10.18 41.16 10.30 41.23 10.43C41.30 10.56 41.34 10.71 41.34 10.88C41.34 11.42 40.97 11.69 40.22 11.69C39.82 11.69 39.46 11.56 39.15 11.31C38.84 11.06 38.64 10.74 38.56 10.35ZM43.97 3.50C43.97 3.71 44.05 3.88 44.21 4.04C44.36 4.19 44.54 4.27 44.74 4.27C44.95 4.27 45.13 4.19 45.28 4.04C45.44 3.88 45.51 3.71 45.51 3.50C45.51 3.29 45.44 3.12 45.28 2.96C45.13 2.81 44.95 2.73 44.74 2.73C44.54 2.73 44.36 2.81 44.21 2.96C44.05 3.12 43.97 3.29 43.97 3.50ZM44.18 6.16L44.18 12.60L45.30 12.60L45.30 6.16ZM47.05 9.38C47.05 10.35 47.37 11.15 48.01 11.79C48.64 12.42 49.43 12.74 50.39 12.74C51.34 12.74 52.13 12.42 52.77 11.79C53.40 11.15 53.72 10.35 53.72 9.38C53.72 8.41 53.40 7.61 52.77 6.97C52.13 6.34 51.34 6.02 50.39 6.02C49.43 6.02 48.64 6.34 48.01 6.97C47.37 7.61 47.05 8.41 47.05 9.38ZM48.19 9.38C48.19 8.71 48.40 8.15 48.81 7.72C49.23 7.29 49.75 7.07 50.39 7.07C51.02 7.07 51.55 7.29 51.96 7.72C52.38 8.15 52.58 8.71 52.58 9.38C52.58 10.05 52.38 10.61 51.96 11.04C51.55 11.47 51.02 11.69 50.39 11.69C49.75 11.69 49.23 11.47 48.81 11.04C48.40 10.61 48.19 10.05 48.19 9.38ZM56.38 8.68C56.38 8.21 56.53 7.83 56.83 7.52C57.14 7.22 57.53 7.07 58.02 7.07C58.93 7.07 59.39 7.61 59.39 8.68L59.39 12.60L60.51 12.60L60.51 8.54C60.51 7.73 60.31 7.10 59.91 6.67C59.52 6.24 58.98 6.02 58.30 6.02C57.49 6.02 56.85 6.36 56.38 7.03L56.38 6.16L55.26 6.16L55.26 12.60L56.38 12.60ZM63.87 7.84L67.58 7.84L67.58 6.72L63.87 6.72L63.87 3.92L67.72 3.92L67.72 2.80L62.68 2.80L62.68 12.60L63.87 12.60ZM69.41 7.67C70.03 7.22 70.67 7.00 71.33 7.00C71.70 7.00 72.02 7.09 72.29 7.26C72.56 7.43 72.69 7.67 72.69 7.98L72.69 8.95C72.27 8.71 71.76 8.60 71.16 8.60C70.40 8.60 69.72 8.78 69.15 9.13C68.57 9.49 68.28 10.00 68.28 10.64C68.28 11.33 68.51 11.85 68.97 12.21C69.43 12.56 69.94 12.74 70.49 12.74C70.98 12.74 71.43 12.65 71.81 12.46C72.20 12.27 72.49 12.01 72.69 11.68L72.69 12.60L73.81 12.60L73.81 7.98C73.81 7.36 73.58 6.88 73.13 6.54C72.68 6.19 72.08 6.02 71.33 6.02C70.42 6.02 69.59 6.29 68.87 6.82ZM69.41 10.64C69.41 9.85 70.01 9.45 71.22 9.45C71.75 9.45 72.24 9.53 72.69 9.70L72.69 10.08C72.69 11.19 72.10 11.75 70.91 11.75C69.91 11.75 69.41 11.38 69.41 10.64ZM76.20 9.38C76.20 8.71 76.41 8.15 76.83 7.72C77.24 7.29 77.77 7.07 78.40 7.07C78.90 7.07 79.37 7.18 79.79 7.40C80.21 7.62 80.49 7.89 80.64 8.20L80.64 6.85C80.42 6.59 80.10 6.39 79.69 6.24C79.28 6.09 78.85 6.02 78.40 6.02C77.45 6.02 76.65 6.34 76.02 6.97C75.39 7.61 75.07 8.41 75.07 9.38C75.07 10.35 75.39 11.15 76.02 11.79C76.65 12.42 77.45 12.74 78.40 12.74C78.86 12.74 79.29 12.67 79.70 12.52C80.11 12.38 80.43 12.18 80.64 11.91L80.64 10.56C80.49 10.87 80.21 11.14 79.79 11.36C79.37 11.58 78.90 11.69 78.40 11.69C77.77 11.69 77.24 11.47 76.83 11.04C76.41 10.61 76.20 10.05 76.20 9.38ZM82.39 3.50C82.39 3.71 82.47 3.88 82.62 4.04C82.78 4.19 82.95 4.27 83.16 4.27C83.37 4.27 83.55 4.19 83.70 4.04C83.85 3.88 83.93 3.71 83.93 3.50C83.93 3.29 83.85 3.12 83.70 2.96C83.55 2.81 83.37 2.73 83.16 2.73C82.95 2.73 82.78 2.81 82.62 2.96C82.47 3.12 82.39 3.29 82.39 3.50ZM82.60 6.16L82.60 12.60L83.72 12.60L83.72 6.16ZM86.03 1.68L86.03 12.60L87.15 12.60L87.15 1.68ZM93.70 8.71L89.87 8.71C89.92 8.19 90.14 7.78 90.52 7.47C90.89 7.16 91.35 7.00 91.88 7.00C92.42 7.00 92.85 7.15 93.16 7.46C93.46 7.77 93.65 8.19 93.70 8.71ZM89.84 9.66L94.91 9.66C94.92 9.59 94.92 9.47 94.92 9.32C94.92 8.32 94.64 7.51 94.09 6.92C93.53 6.32 92.80 6.02 91.88 6.02C90.94 6.02 90.17 6.33 89.58 6.96C88.99 7.59 88.69 8.40 88.69 9.38C88.69 10.35 88.98 11.15 89.56 11.79C90.14 12.42 90.86 12.74 91.74 12.74C92.52 12.74 93.13 12.60 93.59 12.33C94.05 12.06 94.45 11.65 94.81 11.10L93.90 10.53C93.42 11.30 92.75 11.69 91.88 11.69C91.29 11.69 90.82 11.51 90.45 11.16C90.09 10.80 89.88 10.30 89.84 9.66Z"
       id="path20"
       style="fill:#0053db;fill-opacity:1" />
  </g>
  <!---->
  <!---->
  <circle
     style="fill:#ffd009;fill-opacity:1;stroke-width:1.5998"
     id="path243"
     cx="50.399426"
     cy="46.233475"
     r="30.348253" />
  <path
     style="fill:#0053db;fill-opacity:1;stroke-width:1.408"
     d="M 25.948839,37.634124 C 51.248175,66.077076 51.519659,66.831477 51.519659,66.831477 67.666169,45.817325 84.053129,23.595296 97.752673,5.2406907 L 94.590243,4.1325157 52.123491,57.288893 26.722539,36.656807 c 0,0 -0.718967,0.388654 -0.863842,0.565697 -0.173105,0.211578 0.09016,0.411464 0.09016,0.411464 z"
     id="path4918"
     sodipodi:nodetypes="ccccccscc" />
</svg>
